<?xml version="1.0" encoding="utf-8"?>
<!-- Generator: Adobe Illustrator 27.1.1, SVG Export Plug-In . SVG Version: 6.00 Build 0)  -->
<svg version="1.1" id="Layer_1" xmlns="http://www.w3.org/2000/svg" xmlns:xlink="http://www.w3.org/1999/xlink" x="0px" y="0px"
	 viewBox="0 0 512 512" style="enable-background:new 0 0 512 512;" xml:space="preserve">
<style type="text/css">
	.st0{fill-rule:evenodd;clip-rule:evenodd;fill:#EE4D2D;}
</style>
<g>
	<path class="st0" d="M93.43,289.68c-0.9,7.41-5.39,13.35-12.35,16.32c-3.87,1.66-9.08,2.55-13.2,2.27
		c-6.42-0.25-12.46-1.81-18.02-4.66c-1.99-1.02-4.95-3.06-7.23-4.97c-0.58-0.48-0.64-0.79-0.26-1.33c0.21-0.31,0.59-0.87,1.42-2.1
		c1.22-1.78,1.37-2.01,1.51-2.22c0.39-0.6,1.02-0.65,1.65-0.16c0.07,0.05,0.07,0.05,0.12,0.09c0.1,0.08,0.1,0.08,0.34,0.27
		c0.24,0.19,0.39,0.3,0.45,0.35c6,4.7,12.99,7.41,20.04,7.68c9.82-0.13,16.87-4.55,18.14-11.32c1.39-7.46-4.46-13.9-15.92-17.49
		c-3.58-1.12-12.64-4.75-14.31-5.73c-7.84-4.6-11.51-10.63-10.98-18.07c0.8-10.32,10.38-18.01,22.48-18.06
		c5.41-0.01,10.81,1.11,16,3.3c1.84,0.77,5.12,2.56,6.25,3.4c0.65,0.48,0.78,1.04,0.41,1.64c-0.21,0.35-0.55,0.9-1.28,2.06
		l-0.01,0.01c-0.96,1.52-0.99,1.57-1.21,1.92c-0.38,0.58-0.83,0.63-1.51,0.2c-5.55-3.73-11.71-5.61-18.47-5.74
		c-8.43,0.17-14.74,5.18-15.16,12.01c-0.11,6.17,4.52,10.67,14.51,14.11C87.13,269.99,94.89,277.63,93.43,289.68 M68.37,183.17
		c13.21,0,23.98,12.54,24.48,28.23H43.89C44.39,195.71,55.16,183.17,68.37,183.17 M136.74,214.35c0-1.63-1.31-2.95-2.93-2.95h-31.74
		c-0.78-20.72-15.57-37.24-33.7-37.24c-18.13,0-32.92,16.52-33.7,37.24l-31.78,0c-1.59,0.03-2.88,1.34-2.88,2.95
		c0,0.08,0,0.15,0.01,0.23H0l4.53,99.87c0,0.28,0.01,0.56,0.03,0.84c0,0.06,0.01,0.13,0.01,0.19l0.01,0.21l0.01,0.01
		c0.69,6.95,5.73,12.55,12.59,12.81l0.02,0.02h100.82c0.05,0,0.1,0,0.14,0s0.1,0,0.14,0h0.21l0,0c6.98-0.19,12.63-5.87,13.23-12.9
		l0,0l0-0.09c0.01-0.07,0.01-0.15,0.02-0.22c0.01-0.18,0.02-0.35,0.02-0.53l4.94-100.26h0C136.74,214.45,136.74,214.4,136.74,214.35
		 M472.83,279.44c1.94-6.34,7.82-10.56,14.67-10.56c6.54,0,12.77,4.44,14.92,10.55l0.15,0.42h-29.86L472.83,279.44z M509.22,288.62
		c0.04,0,0.04,0,0.1,0c0.06,0,0.06,0,0.12,0c1.43-0.07,2.56-1.28,2.56-2.77c0-0.07,0-0.13-0.01-0.23c0-0.02,0-0.05,0-0.17
		c0-13.99-10.97-25.33-24.5-25.33c-13.53,0-24.5,11.34-24.5,25.33c0,1.04,0.06,2.08,0.18,3.12l0.01,0.06l0.04,0.27
		c0.67,5.03,2.82,9.66,6.21,13.39l0.02,0.02c3.76,4.14,8.87,6.96,14.53,8.02l0.07,0.01v-0.01l0.37,0.06
		c0.19,0.03,0.39,0.06,0.66,0.11c7.46,0.9,14.07-0.18,19.67-3c1.38-0.69,2.62-1.46,3.69-2.27c0.35-0.26,0.66-0.51,0.93-0.75
		c0.14-0.12,0.25-0.22,0.31-0.28c1.26-1.3,1.34-1.76,0.58-2.95c-0.84-1.34-1.58-2.47-2.21-3.42c-0.22-0.33-0.42-0.61-0.58-0.84
		c-0.09-0.13-0.09-0.13-0.15-0.21l-0.04-0.05l-0.01-0.01c-0.69-0.86-1.16-0.94-1.93-0.26c-0.08,0.07-0.35,0.28-0.4,0.34
		c-5.39,4.78-12.74,6.32-20.09,4.79c-1.37-0.37-2.65-0.83-3.83-1.4c-4.6-2.31-7.86-6.42-8.81-11.18l-0.07-0.38L509.22,288.62z
		 M414.54,279.44c1.94-6.34,7.82-10.56,14.67-10.56c6.54,0,12.77,4.44,14.92,10.55l0.15,0.42h-29.86L414.54,279.44z M450.92,288.62
		c0.04,0,0.04,0,0.1,0c0.06,0,0.06,0,0.12,0c1.43-0.07,2.56-1.28,2.56-2.77c0-0.07,0-0.13-0.01-0.23c0-0.02,0-0.05,0-0.17
		c0-13.99-10.97-25.33-24.5-25.33c-13.53,0-24.5,11.34-24.5,25.33c0,1.04,0.06,2.08,0.18,3.12l0.01,0.06l0.04,0.27
		c0.67,5.03,2.82,9.66,6.21,13.39l0.02,0.02c3.76,4.14,8.87,6.96,14.53,8.02l0.07,0.01v-0.01l0.37,0.06
		c0.19,0.03,0.39,0.06,0.66,0.11c7.46,0.9,14.07-0.18,19.67-3c1.38-0.69,2.62-1.46,3.69-2.27c0.35-0.26,0.66-0.51,0.93-0.75
		c0.14-0.12,0.25-0.22,0.31-0.28c1.26-1.3,1.34-1.76,0.58-2.95c-0.84-1.34-1.58-2.47-2.21-3.42c-0.22-0.33-0.42-0.61-0.58-0.84
		c-0.09-0.13-0.09-0.13-0.15-0.21l-0.04-0.05l-0.01-0.01c-0.69-0.86-1.16-0.94-1.93-0.26c-0.08,0.07-0.35,0.28-0.4,0.34
		c-5.39,4.78-12.74,6.32-20.09,4.79c-1.37-0.37-2.65-0.83-3.83-1.4c-4.6-2.31-7.86-6.42-8.8-11.18l-0.07-0.38L450.92,288.62z
		 M370.05,302.57c-9.11,0-16.56-7.22-16.79-16.28v-0.85c0.23-9.04,7.68-16.26,16.79-16.26c9.28,0,16.8,7.48,16.8,16.7
		S379.32,302.57,370.05,302.57 M370.05,260.32c-5.98,0-11.69,2.04-16.28,5.77l-0.52,0.42v-4.67c0-1.25-0.27-1.52-1.53-1.52h-5.87
		c-1.28,0-1.53,0.25-1.53,1.52v74.48c0,1.22,0.29,1.52,1.53,1.52h5.87c1.25,0,1.53-0.29,1.53-1.52v-31.06l0.52,0.42
		c4.59,3.73,10.3,5.77,16.28,5.77c14.21,0,25.72-11.45,25.72-25.57C395.77,271.77,384.26,260.32,370.05,260.32 M309.65,302
		c-9.3,0-16.83-7.41-16.83-16.55s7.54-16.55,16.83-16.55c9.29,0,16.83,7.41,16.83,16.55C326.48,294.59,318.94,302,309.65,302
		 M309.65,260.11c-14.23,0-25.77,11.35-25.77,25.35c0,14,11.54,25.35,25.77,25.35c14.23,0,25.77-11.35,25.77-25.35
		C335.42,271.46,323.89,260.11,309.65,260.11 M252.21,260.68c-5.2,0-10.22,1.67-14.39,4.76l-0.51,0.38v-34.59
		c0-1.15-0.38-1.52-1.52-1.52h-6.14c-1.24,0-1.52,0.3-1.52,1.52v78.91c0,1.19,0.31,1.52,1.52,1.52h6.14c1.14,0,1.52-0.39,1.52-1.52
		v-25.77c0.06-8.11,6.72-14.66,14.9-14.66c8.2,0,14.87,6.58,14.9,14.72v25.72c0,1.31,0.22,1.52,1.52,1.52h6.12
		c1.3,0,1.52-0.22,1.52-1.52v-25.79C276.23,271.33,265.38,260.68,252.21,260.68 M166.66,297.34l-0.01,0.02
		c-0.88,1.33-1.24,1.88-1.45,2.2c-0.69,1.03-0.6,1.49,0.45,2.38c2.46,1.98,5.62,4.07,7.75,5.11c5.93,2.9,12.34,4.44,19.14,4.57
		c4.39,0.22,9.9-0.82,14-2.65c7.43-3.31,12.16-9.77,12.99-17.73c1.34-12.89-7.04-20.95-28.65-27.45l-0.01,0
		c-10.07-3.25-14.8-7.56-14.8-13.59c0.3-6.66,6.47-11.64,14.8-11.95c6.71,0.02,12.64,1.8,18.47,5.55c1.23,0.75,1.8,0.61,2.62-0.46
		c0.09-0.16,0.36-0.54,1.46-2.13l0-0.01c1.03-1.48,1.37-1.98,1.46-2.12c0.7-1.31,0.6-1.82-0.66-2.71c-1.24-0.89-4.73-2.7-6.72-3.5
		c-5.55-2.21-11.28-3.29-16.99-3.18c-12.99,0.28-23.12,8.73-23.79,19.81c-0.42,8,3.64,14.44,12.13,19.2
		c2.38,1.26,11.08,4.54,15.14,5.73c11.55,3.38,17.57,9.6,16.32,16.94c-1.13,6.67-8.12,11.1-17.92,11.41
		c-7.11-0.15-14.27-2.75-20.49-7.43c-0.03-0.02-0.19-0.14-0.48-0.36c-0.41-0.3-0.41-0.3-0.47-0.35c-1.27-0.88-2.01-0.8-2.79,0.35
		C168.1,295.15,167.13,296.62,166.66,297.34"/>
</g>
</svg>
